# xmcd CD database file
#
# Track frame offsets:
#	150
#	19721
#	42015
#	62157
#	84552
#	101861
#	118544
#	134767
#	158503
#	178729
#	193136
#	214053
#
# Disc length: 3144 seconds
#
# Revision: 3
# Processed by: cddbd v1.4PL0 Copyright (c) Steve Scherf et al.
# Submitted via: CDex 1.40PlusFr
#
DISCID=a70c460c
DTITLE=Eric Bibb - Home To Me
DYEAR=1999
DGENRE=Blues
TTITLE0=World War Blues
TTITLE1=Healing Time
TTITLE2=Mandela Is Free
TTITLE3=No More Cane On The Brazos
TTITLE4=Livin', Lovin' An' Doin'
TTITLE5=Walk The Walk
TTITLE6=Put Your Foot Down
TTITLE7=For You
TTITLE8=New Shoes
TTITLE9=Singin' In My Heart
TTITLE10=Come Back Baby
TTITLE11=Bring It On Home To Me
EXTD=YEAR: 1999 ID3G: 0
EXTT0=
EXTT1=
EXTT2=
EXTT3=
EXTT4=
EXTT5=
EXTT6=
EXTT7=
EXTT8=
EXTT9=
EXTT10=
EXTT11=
PLAYORDER=
